<?xml version="1.0" encoding="utf-8"?>
<!-- Generator: Adobe Illustrator 24.0.3, SVG Export Plug-In . SVG Version: 6.00 Build 0)  -->
<svg version="1.1" id="Layer_1" xmlns="http://www.w3.org/2000/svg" xmlns:xlink="http://www.w3.org/1999/xlink" x="0px" y="0px"
	 viewBox="0 0 105 40.1" style="enable-background:new 0 0 105 40.1;" xml:space="preserve">
<style type="text/css">
	.st0{fill:#FFFFFF;}
</style>
<title>RYOBI_blackbox</title>
<g id="Layer_2_1_">
	<g id="Layer_1-2">
		<rect width="105" height="40.1"/>
		<path class="st0" d="M99,30.1c-0.6,0-1,0.4-1,1s0.4,1,1,1s1-0.4,1-1S99.6,30.1,99,30.1 M99,31.9c-0.4,0-0.8-0.3-0.8-0.8
			c0-0.4,0.3-0.8,0.8-0.8c0.4,0,0.8,0.3,0.8,0.8S99.4,31.9,99,31.9C99,31.9,99,31.9,99,31.9"/>
		<polygon class="st0" points="40.9,8 35.7,16.1 30.9,8 24.9,8 32.7,21.6 32.7,32 38.4,32 38.4,21.7 46.8,8 		"/>
		<polygon class="st0" points="91.5,8 91.5,32 97,32 97,8 		"/>
		<path class="st0" d="M56.5,7.7C49.6,7.6,44,13.3,44,20.2c0,6.9,5.6,12.6,12.5,12.6s12.6-5.6,12.6-12.5c0,0,0,0,0,0
			C69.1,13.3,63.5,7.7,56.5,7.7 M56.5,27.3c-3.9,0-7.1-3.2-7.1-7.1s3.2-7.1,7.1-7.1s7.1,3.2,7.1,7.1c0,0,0,0,0,0
			C63.6,24.1,60.5,27.3,56.5,27.3"/>
		<path class="st0" d="M99.1,31.2L99.1,31.2c0.2,0,0.3-0.1,0.3-0.3c0-0.2-0.1-0.3-0.3-0.3h-0.5v1h0.2v-0.4l0,0c0.1,0,0.1,0,0.2,0
			c0.1,0.1,0.1,0.1,0.1,0.2l0.1,0.2h0.3l-0.1-0.2C99.2,31.2,99.1,31.2,99.1,31.2 M99,31h-0.2v-0.3H99c0.1,0,0.2,0,0.2,0.1
			S99.2,31,99,31"/>
		<path class="st0" d="M86.7,19.4c1.6-1.6,2.3-3.9,1.8-6.1C87.9,10.1,85,7.8,81.6,8H69.9v5h11.4c1.2,0.1,2.1,1.1,2.1,2.4
			c-0.1,1.1-1,2-2.1,2.1h-9.9V32h9.9c0.9,0.1,1.9,0,2.8-0.2c3-0.9,5.1-3.7,5.2-6.8c0,0,0-0.5,0-0.6C89.2,22,88.3,20.4,86.7,19.4
			 M81.5,27h-4.7v-4.8h4.7c1.3-0.1,2.5,0.9,2.5,2.2c0.1,1.3-0.9,2.5-2.2,2.5C81.7,27,81.6,27,81.5,27"/>
		<path class="st0" d="M18.7,8c3.9,0.2,6.8,3.5,6.6,7.4c-0.2,3.2-2.5,5.9-5.7,6.5l0,0l6.7,10.3h-6.5l-6.5-9.9v9.9H8V17.6h10.3
			c1.2,0,2.2-1,2.2-2.2s-1-2.2-2.2-2.2H5.6V8H18.7"/>
	</g>
</g>
</svg>
